<?xml version="1.0" encoding="utf-8"?>
<!-- Generator: Adobe Illustrator 16.0.0, SVG Export Plug-In . SVG Version: 6.00 Build 0)  -->
<!DOCTYPE svg PUBLIC "-//W3C//DTD SVG 1.1//EN" "http://www.w3.org/Graphics/SVG/1.1/DTD/svg11.dtd">
<svg version="1.1" id="Layer_1" xmlns="http://www.w3.org/2000/svg" xmlns:xlink="http://www.w3.org/1999/xlink" x="0px" y="0px"
	 width="128px" height="128px" viewBox="0 0 128 128" enable-background="new 0 0 128 128" xml:space="preserve">
<rect fill="#8FB632" width="128" height="128"/>
<g>
	<defs>
		<rect id="SVGID_1_" width="128" height="128"/>
	</defs>
	<clipPath id="SVGID_2_">
		<use xlink:href="#SVGID_1_"  overflow="visible"/>
	</clipPath>
	<path clip-path="url(#SVGID_2_)" fill="#F8F8F9" d="M41.39,54.073v9.195c0,0.09,0.073,0.163,0.163,0.163h3.067
		c0.09,0,0.163-0.073,0.163-0.163v-9.195c0-0.09-0.073-0.163-0.163-0.163h-3.067C41.463,53.91,41.39,53.983,41.39,54.073"/>
	<path clip-path="url(#SVGID_2_)" fill="#F8F8F9" d="M83.238,54.03v9.281c0,0.066,0.055,0.12,0.12,0.12h3.11
		c0.065,0,0.12-0.054,0.12-0.12V54.03c0-0.066-0.055-0.12-0.12-0.12h-3.11C83.293,53.91,83.238,53.964,83.238,54.03"/>
	<polygon clip-path="url(#SVGID_2_)" fill="#F8F8F9" points="88.015,64.571 81.817,64.571 81.817,58.961 64.433,58.961 
		63.566,58.961 46.182,58.961 46.182,64.571 39.985,64.571 39.985,58.961 19.92,58.961 19.92,95.299 63.566,95.299 64.433,95.299 
		108.08,95.299 108.08,58.961 88.015,58.961 	"/>
	<path clip-path="url(#SVGID_2_)" fill="#F8F8F9" d="M89.959,43.105l-0.214-0.207v-4.277c0-0.078-0.062-0.141-0.141-0.141h-4.347
		c-0.037,0-0.072-0.014-0.1-0.04l-7.759-7.541c-0.026-0.026-0.062-0.04-0.099-0.04H50.7c-0.037,0-0.073,0.014-0.099,0.04
		l-7.759,7.541c-0.027,0.026-0.062,0.04-0.099,0.04h-4.347c-0.078,0-0.141,0.063-0.141,0.141v4.277l-0.213,0.207H18.245
		c-0.078,0-0.141,0.063-0.141,0.141v13.757c0,0.078,0.063,0.141,0.141,0.141h21.5c0.078,0,0.141-0.063,0.141-0.141v-4.438
		c0-0.078,0.064-0.142,0.142-0.142h6.041c0.078,0,0.141,0.064,0.141,0.142v4.438c0,0.078,0.063,0.141,0.142,0.141h17.215h0.867
		h17.215c0.078,0,0.143-0.063,0.143-0.141v-4.438c0-0.078,0.062-0.142,0.141-0.142h6.041c0.078,0,0.142,0.064,0.142,0.142v4.438
		c0,0.078,0.063,0.141,0.142,0.141h21.5c0.078,0,0.141-0.063,0.141-0.141V43.246c0-0.078-0.062-0.141-0.141-0.141H89.959z
		 M64.434,38.48h-0.867H50.259c-0.127,0-0.19-0.154-0.099-0.243l2.598-2.525c0.027-0.026,0.062-0.04,0.099-0.04h10.71h0.867h10.71
		c0.037,0,0.072,0.014,0.098,0.04l2.6,2.525c0.091,0.089,0.027,0.243-0.1,0.243H64.434z"/>
</g>
</svg>
